<?xml version="1.0" encoding="UTF-8"?>
<svg version="1.1" xmlns="http://www.w3.org/2000/svg" width="319" height="171">
<path d="M0 0 C11.88 0 23.76 0 36 0 C36 12.87 36 25.74 36 39 C42.93 39 49.86 39 57 39 C57 48.24 57 57.48 57 67 C50.07 67 43.14 67 36 67 C36.07395158 72.35766427 36.15673214 77.7136432 36.26245117 83.07055664 C36.2957174 84.89305919 36.32374406 86.71566519 36.34643555 88.53833008 C36.37995081 91.1575125 36.43226352 93.77574548 36.48828125 96.39453125 C36.49786613 97.61811089 36.49786613 97.61811089 36.50764465 98.8664093 C36.49722124 103.09781143 36.49722124 103.09781143 38.40246582 106.71228027 C40.43148797 108.34780825 41.64529648 108.42004597 44.23046875 108.51171875 C44.95387451 108.54483154 45.67728027 108.57794434 46.42260742 108.61206055 C47.33502197 108.63695557 48.24743652 108.66185059 49.1875 108.6875 C52.095625 108.790625 55.00375 108.89375 58 109 C58 119.23 58 129.46 58 140 C-19.88 140 -97.76 140 -178 140 C-178.33 118.55 -178.66 97.1 -179 75 C-182.2706636 66.15870483 -182.2706636 66.15870483 -189.1875 60.6875 C-195.02393035 59.26081702 -200.7751151 59.13444115 -206.375 61.5 C-210.60248034 64.08976917 -212.58135756 67.30224286 -214 72 C-214.59624616 77.21824892 -214.60639764 82.41252795 -214.609375 87.65625 C-214.62437522 89.16941074 -214.64110621 90.68255523 -214.65948486 92.19567871 C-214.70296462 96.15430501 -214.72311402 100.11271053 -214.73822021 104.0715332 C-214.76132257 108.83421015 -214.81372963 113.596646 -214.86116028 118.35913086 C-214.92975422 125.57281644 -214.96138015 132.78581147 -215 140 C-225.23 140 -235.46 140 -246 140 C-246.33 135.38 -246.66 130.76 -247 126 C-247.99 126 -248.98 126 -250 126 C-250 130.62 -250 135.24 -250 140 C-253.63 140 -257.26 140 -261 140 C-261 102.71 -261 65.42 -261 27 C-254 33 -254 33 -247 39 C-246.36578125 38.13375 -245.7315625 37.2675 -245.078125 36.375 C-238.03812128 27.68217075 -238.03812128 27.68217075 -232.46875 26.43164062 C-226.60842735 25.9390704 -220.83530666 26.37725976 -215 27 C-214.505 32.445 -214.505 32.445 -214 38 C-213.35675781 37.52949219 -212.71351563 37.05898438 -212.05078125 36.57421875 C-201.03719387 28.98568422 -189.21782118 26.40346544 -176 28.46875 C-165.54383382 30.70935704 -157.80206706 35.87637356 -150 43 C-149.443125 42.54109375 -148.88625 42.0821875 -148.3125 41.609375 C-134.82451091 30.76430269 -120.28871188 26.96612354 -103 28 C-95.33151219 29.01104085 -88.96554266 30.88225342 -82.125 34.5 C-78.0869353 36.68060198 -78.0869353 36.68060198 -73.76171875 36.37890625 C-71.78060735 35.08805091 -71.78060735 35.08805091 -69.95703125 33.51953125 C-60.37982482 26.08333703 -43.43576358 27.17504633 -32.125 28.5625 C-25.43840761 29.76697227 -15.93848147 33.06151853 -11 38 C-7.37 38.33 -3.74 38.66 0 39 C0 26.13 0 13.26 0 0 Z M3 3 C3 15.87 3 28.74 3 42 C-0.3 42 -3.6 42 -7 42 C-6.51789063 42.79664063 -6.03578125 43.59328125 -5.5390625 44.4140625 C-4.90742188 45.47367188 -4.27578125 46.53328125 -3.625 47.625 C-2.99851562 48.66914062 -2.37203125 49.71328125 -1.7265625 50.7890625 C4.6150648 62.58276757 3.19314068 76.53133165 2.9777832 89.54223633 C2.9509545 91.4704883 2.93660653 93.3989548 2.93481445 95.32739258 C2.9108868 116.96351115 2.9108868 116.96351115 -4 126 C-6.83320915 128.67420697 -9.74306656 130.87411072 -13 133 C-14.32 133.99 -15.64 134.98 -17 136 C6.43 136 29.86 136 54 136 C54 128.41 54 120.82 54 113 C51.793125 112.87625 49.58625 112.7525 47.3125 112.625 C38.6411321 112.13875507 38.6411321 112.13875507 35 110 C32.43718408 105.40723087 32.6537982 100.6600024 32.5859375 95.54296875 C32.56657135 94.64000565 32.5472052 93.73704254 32.5272522 92.80671692 C32.46765918 89.93373953 32.42115231 87.06072163 32.375 84.1875 C32.33680155 82.23500895 32.29774873 80.28253441 32.2578125 78.33007812 C32.1603722 73.55347325 32.08064299 68.777036 32 64 C39.26 64 46.52 64 54 64 C54 56.74 54 49.48 54 42 C46.74 42 39.48 42 32 42 C32 29.13 32 16.26 32 3 C22.43 3 12.86 3 3 3 Z M-230 30 C-230 64.98 -230 99.96 -230 136 C-226.37 136 -222.74 136 -219 136 C-218.99635437 135.21818863 -218.99270874 134.43637726 -218.98895264 133.63087463 C-218.95094714 126.23118344 -218.89395368 118.83198876 -218.81609726 111.43261814 C-218.77673578 107.62929729 -218.74449239 103.82620402 -218.72900391 100.02270508 C-218.71376177 96.3460158 -218.67918508 92.66995268 -218.63169098 88.99354362 C-218.61695439 87.59712125 -218.60896345 86.20060944 -218.60811615 84.80410957 C-218.59769196 76.23128966 -218.45630255 68.23349267 -212.65936279 61.42555237 C-207.43488568 56.58730526 -201.13384977 55.54756072 -194.265625 55.7578125 C-187.54706825 56.47600305 -183.47862579 58.88369247 -179.2265625 64.0859375 C-176.39315356 68.50749922 -175.74188977 72.32112798 -175.68115234 77.53442383 C-175.66128265 78.83539505 -175.64141296 80.13636627 -175.62094116 81.47676086 C-175.60906649 82.88684927 -175.59740353 84.29693947 -175.5859375 85.70703125 C-175.5672164 87.15721223 -175.54764228 88.60738242 -175.5272522 90.05754089 C-175.47602431 93.86324696 -175.43634886 97.6689883 -175.39910889 101.47485352 C-175.35195292 106.04719141 -175.29039531 110.61935554 -175.23126221 115.19155121 C-175.14316382 122.1276303 -175.07331856 129.06367801 -175 136 C-165.43 136 -155.86 136 -146 136 C-145.9319394 127.06312015 -145.87702077 118.1264154 -145.84456348 109.18933392 C-145.8289774 105.03847734 -145.80786995 100.88780889 -145.77368164 96.73706055 C-145.74083402 92.72348522 -145.72309407 88.71008964 -145.71536827 84.69639015 C-145.70986995 83.17314644 -145.69913447 81.64991138 -145.68280983 80.12674522 C-145.53708784 65.95294563 -147.14327209 53.04506923 -157.0625 42.3125 C-166.02991702 33.73045958 -176.25066388 31.60916856 -188.29296875 31.72265625 C-197.34765952 32.40008833 -205.45387561 35.65426717 -212 42 C-213.98 44.31 -215.96 46.62 -218 49 C-218.33 42.73 -218.66 36.46 -219 30 C-222.63 30 -226.26 30 -230 30 Z M-148 47 C-147.92593096 49.59241624 -147.11194987 51.66965612 -146.28515625 54.109375 C-146.02605469 54.87765625 -145.76695312 55.6459375 -145.5 56.4375 C-145.2421875 57.15808594 -144.984375 57.87867187 -144.71875 58.62109375 C-143.17869874 63.71832862 -142.86264987 68.7133105 -142.79467773 74.01513672 C-142.78464501 74.69980074 -142.77461229 75.38446476 -142.76427555 76.08987617 C-142.7331178 78.28644657 -142.70821416 80.48303516 -142.68359375 82.6796875 C-142.66516929 84.04370684 -142.64633151 85.40772066 -142.6270752 86.77172852 C-142.55888306 91.8060871 -142.49866706 96.84055117 -142.4375 101.875 C-142.293125 113.13625 -142.14875 124.3975 -142 136 C-117.25 136 -92.5 136 -67 136 C-69.94307071 133.79269697 -72.88708211 131.73207902 -75.9375 129.6875 C-85.28540785 123.12611975 -89.63647664 115.02977569 -92 104 C-92.66 104.7425 -93.32 105.485 -94 106.25 C-98.76009132 110.91701691 -103.68288285 113.22222286 -110.375 113.5625 C-117.58813598 113.27156684 -123.46269436 110.66742388 -128.4375 105.4375 C-130.6579118 100.55259405 -131.69858596 95.20565617 -133 90 C-108.58 90 -84.16 90 -59 90 C-55.21649547 82.43299094 -58.65910332 70.57055947 -61 63 C-66.13975727 50.81687166 -73.79353257 41.46461721 -86 36 C-106.70371663 28.90032295 -132.46176101 29.46143599 -148 47 Z M-73 40 C-72.13375 40.969375 -71.2675 41.93875 -70.375 42.9375 C-67.39647126 46.40188803 -64.86811384 50.05028073 -62.39453125 53.88671875 C-61.00633384 55.99040167 -59.53136079 57.99884121 -58 60 C-57.814375 59.401875 -57.62875 58.80375 -57.4375 58.1875 C-55.3365436 54.99039244 -52.56673532 53.96701272 -49 53 C-43.12464888 52.44044275 -38.20580017 53.07967308 -33 56 C-30.38559859 58.68143735 -29.18103469 60.45689592 -28 64 C-19.09 64 -10.18 64 -1 64 C-2.38843553 54.28095131 -6.48514985 46.34644969 -14.3046875 40.18359375 C-30.86191675 28.68951721 -56.49218049 28.02373879 -73 40 Z M-54 59 C-54.88658466 61.59122743 -54.88658466 61.59122743 -55 64 C-51.57836278 66.99315633 -48.80708371 68.6531457 -44.4375 69.875 C-42.74173828 70.36806641 -42.74173828 70.36806641 -41.01171875 70.87109375 C-39.67474697 71.24834621 -38.33748215 71.62456097 -37 72 C-33.57906533 72.96484349 -30.16387358 73.94799895 -26.75 74.9375 C-25.92298584 75.16614746 -25.09597168 75.39479492 -24.24389648 75.63037109 C-16.53864721 77.86437832 -9.07362739 80.83630735 -4 87.3125 C-3.0112461 88.55073116 -2.01471171 89.78294994 -1 91 C-0.67 91 -0.34 91 0 91 C0 83.41 0 75.82 0 68 C-10.23 68 -20.46 68 -31 68 C-31.33 66.02 -31.66 64.04 -32 62 C-35.05483973 58.38242664 -37.25403927 56.26739692 -42.0859375 55.796875 C-46.81471359 55.70003999 -50.31473512 55.6602287 -54 59 Z M-56 69 C-55.67 76.26 -55.34 83.52 -55 91 C-48.3162878 93.17538315 -48.3162878 93.17538315 -41.62817383 95.3371582 C-32.30215227 98.40887017 -32.30215227 98.40887017 -29 101 C-27.84520273 104.89744079 -27.59669277 107.04479867 -29.1875 110.8125 C-31.89217486 114.07676276 -33.9539383 114.87761593 -38.171875 115.37109375 C-44.79250024 115.49396562 -49.87556206 115.46137031 -55.44921875 111.6796875 C-57 110 -57 110 -60 104 C-69.24 104 -78.48 104 -88 104 C-86.97719731 112.18242149 -85.81518684 114.92343165 -81 121 C-80.50628906 121.63164063 -80.01257813 122.26328125 -79.50390625 122.9140625 C-72.49732002 130.84670626 -60.92910075 135.30195276 -50.51245117 136.21899414 C-34.96037774 136.90551549 -20.17224785 136.18584806 -8.06640625 125.25390625 C-2.68739041 119.69596265 -0.09329581 113.89803017 0.0546875 106.12890625 C-0.45463794 97.96862689 -3.01304832 91.73863592 -9 86 C-14.2916311 82.0517223 -19.76896832 79.78096786 -26.0625 77.9375 C-26.88379395 77.68709961 -27.70508789 77.43669922 -28.55126953 77.17871094 C-34.95868452 75.24668993 -41.41063794 73.4993066 -47.8984375 71.859375 C-51 71 -51 71 -56 69 Z M-129 94 C-128.54143656 95.45686197 -128.07591068 96.91153377 -127.60742188 98.36523438 C-127.34892456 99.17553101 -127.09042725 99.98582764 -126.82409668 100.82067871 C-125.83849186 103.4271078 -124.72039346 104.82496633 -122.5 106.5 C-121.9121875 106.9640625 -121.324375 107.428125 -120.71875 107.90625 C-115.98283241 110.92001574 -110.39554263 110.54256853 -105 110 C-102.05304905 109.02475005 -100.53151644 107.95137726 -98 106 C-97.62061279 105.14188721 -97.24122559 104.28377441 -96.8503418 103.3996582 C-95 101 -95 101 -91.17114258 100.34057617 C-89.57939051 100.29946586 -87.9867956 100.28529232 -86.39453125 100.29296875 C-85.13572395 100.27028679 -85.13572395 100.27028679 -83.85148621 100.24714661 C-81.17155307 100.20416453 -78.49274392 100.1954219 -75.8125 100.1875 C-73.99541261 100.16436373 -72.1783521 100.1390002 -70.36132812 100.11132812 C-65.90745228 100.04837242 -61.4542817 100.01611923 -57 100 C-56.7215625 101.09570312 -56.443125 102.19140625 -56.15625 103.3203125 C-55.01635248 106.94795932 -53.97391543 108.78668103 -50.90234375 111.0546875 C-46.47166503 113.25638001 -41.65030384 113.50231391 -36.8359375 112.58984375 C-34.66213098 111.93111852 -34.66213098 111.93111852 -32 110 C-30.94250443 106.91630113 -30.94250443 106.91630113 -31 104 C-46.55942035 90.02990123 -71.85620391 93.27521789 -91.21331787 93.5880127 C-95.48447636 93.65029036 -99.7558585 93.67698283 -104.02734375 93.70703125 C-112.35216307 93.77065725 -120.6759139 93.87254038 -129 94 Z " fill="#FEFEFE" transform="translate(261,2)"/>
<path d="M0 0 C3.88924158 1.8057193 5.51165031 3.26747547 7.875 6.8125 C9.5533966 11.56795702 9.6278203 15.15577787 8 19.9375 C5.66399315 23.51451049 2.93706514 26.24377649 -0.16015625 29.16796875 C-2.18578289 31.06395547 -2.18578289 31.06395547 -4 34 C-9.87860082 31.43550971 -13.9362954 26.45064921 -18 21.625 C-19.93689961 16.54063852 -19.88559562 11.1440736 -17.8125 6.125 C-12.45205241 -0.15966269 -8.12497815 -1.16923327 0 0 Z " fill="#FDFDFE" transform="translate(19,0)"/>
<path d="M0 0 C3.46645227 2.96312665 5.81713249 6.59113018 7 11 C7 13.31 7 15.62 7 18 C-7.85 18 -22.7 18 -38 18 C-35.83280824 8.2476371 -34.00332622 3.76239488 -26 -2 C-17.47381972 -6.06931332 -7.98960771 -4.61211813 0 0 Z M-30.4375 6.4375 C-32.34433062 9.23508414 -32.34433062 9.23508414 -33 14 C-21.12 14 -9.24 14 3 14 C2.13214155 7.8353531 2.13214155 7.8353531 -1.875 4.1875 C-2.57367188 3.60355469 -3.27234375 3.01960938 -3.9921875 2.41796875 C-12.32833656 -3.4692338 -23.74825292 -0.25174708 -30.4375 6.4375 Z " fill="#FFFFFF" transform="translate(166,60)"/>
<path d="M0 0 C2.6875 1.25 2.6875 1.25 3.6875 2.25 C4.24525398 6.34019588 4.00375995 7.82530807 1.5 11.1875 C-1.3125 13.25 -1.3125 13.25 -3.9375 13.3125 C-6.8459931 12.01133203 -7.85607884 11.08618858 -9.3125 8.25 C-9.5 5 -9.5 5 -9.3125 2.25 C-4.15734591 -0.94128587 -4.15734591 -0.94128587 0 0 Z " fill="#0D3972" transform="translate(16.3125,7.75)"/>
<path d="M0 0 C5 1 5 1 6.8125 3.5625 C7.204375 4.366875 7.59625 5.17125 8 6 C8.33 4.02 8.66 2.04 9 0 C9.99 0 10.98 0 12 0 C12 4.62 12 9.24 12 14 C8 13 8 13 6.25 10.4375 C5.8375 9.633125 5.425 8.82875 5 8 C4.67 9.98 4.34 11.96 4 14 C2.68 14 1.36 14 0 14 C0 9.38 0 4.76 0 0 Z " fill="#F5981E" transform="translate(230,157)"/>
<path d="M0 0 C4 1 4 1 6.25 4.0625 C7.11625 5.5165625 7.11625 5.5165625 8 7 C8.33 4.69 8.66 2.38 9 0 C9.99 0 10.98 0 12 0 C12 4.62 12 9.24 12 14 C10.68 14 9.36 14 8 14 C5.75 11 5.75 11 4 8 C3.67 9.98 3.34 11.96 3 14 C2.01 14 1.02 14 0 14 C0 9.38 0 4.76 0 0 Z " fill="#F4991D" transform="translate(57,157)"/>
<path d="M0 0 C2.5 2.125 2.5 2.125 4 5 C3.936318 8.18409977 3.51040601 10.14932332 1.875 12.875 C-1.20515368 14.72309221 -3.50442383 14.49060718 -7 14 C-9.5 11.875 -9.5 11.875 -11 9 C-10.936318 5.81590023 -10.51040601 3.85067668 -8.875 1.125 C-5.79484632 -0.72309221 -3.49557617 -0.49060718 0 0 Z M-6 3 C-7.19838209 5.32854463 -7.19838209 5.32854463 -8 8 C-7.01 9.485 -7.01 9.485 -6 11 C-3.41619823 11.25030977 -3.41619823 11.25030977 -1 11 C0.19838209 8.67145537 0.19838209 8.67145537 1 6 C0.34 5.01 -0.32 4.02 -1 3 C-3.58380177 2.74969023 -3.58380177 2.74969023 -6 3 Z " fill="#F5991D" transform="translate(111,157)"/>
<path d="M0 0 C7.25581395 -0.48372093 7.25581395 -0.48372093 10.5 1.625 C12.45562482 4.72140596 12.60024477 6.39853135 12 10 C10.5 12.375 10.5 12.375 8 14 C5.24150058 14.32638734 2.79515088 14.18634339 0 14 C0 9.38 0 4.76 0 0 Z M3 3 C3 5.64 3 8.28 3 11 C4.65 10.67 6.3 10.34 8 10 C8.67958603 7.60280568 8.67958603 7.60280568 9 5 C8.34 4.34 7.68 3.68 7 3 C5.68 3 4.36 3 3 3 Z " fill="#F5981D" transform="translate(71,157)"/>
<path d="M0 0 C7.75 -0.125 7.75 -0.125 10 1 C10 5.33333333 10 9.66666667 10 14 C8.68 13.67 7.36 13.34 6 13 C5.67 11.68 5.34 10.36 5 9 C4.34 9 3.68 9 3 9 C3 10.65 3 12.3 3 14 C2.01 14 1.02 14 0 14 C0 9.38 0 4.76 0 0 Z M3 3 C3 3.99 3 4.98 3 6 C4.32 6 5.64 6 7 6 C7 5.01 7 4.02 7 3 C5.68 3 4.36 3 3 3 Z " fill="#F4981D" transform="translate(129,157)"/>
<path d="M0 0 C6.0546875 -0.1953125 6.0546875 -0.1953125 8 0 C8.66 0.66 9.32 1.32 10 2 C9.625 4.9375 9.625 4.9375 9 8 C8.84188612 11.05270463 8.84188612 11.05270463 10 14 C8.68 14 7.36 14 6 14 C5.34 12.68 4.68 11.36 4 10 C3.67 11.32 3.34 12.64 3 14 C2.01 14 1.02 14 0 14 C0 9.38 0 4.76 0 0 Z M3 3 C3 3.99 3 4.98 3 6 C4.32 5.67 5.64 5.34 7 5 C7 4.34 7 3.68 7 3 C5.68 3 4.36 3 3 3 Z " fill="#F5981D" transform="translate(168,157)"/>
<path d="M0 0 C1.9375 1.375 1.9375 1.375 3 3 C3 3.66 3 4.32 3 5 C0.03 4.67 -2.94 4.34 -6 4 C-6.38218767 5.65614657 -6.71395102 7.32457024 -7 9 C-5.96243008 10.2602065 -5.96243008 10.2602065 -3.6875 10.125 C-1.28967362 10.01347319 0.70894512 9.67883108 3 9 C1.125 12.875 1.125 12.875 0 14 C-3.85797355 14.36395977 -6.15988698 14.56007535 -9.4375 12.375 C-11.47161336 9.28314769 -11.60605429 7.63632575 -11 4 C-8.05323917 -0.47907646 -5.13567732 -0.65363166 0 0 Z " fill="#F5991D" transform="translate(210,157)"/>
<path d="M0 0 C0.99 0 1.98 0 3 0 C3.33 3.3 3.66 6.6 4 10 C5.32 10.33 6.64 10.66 8 11 C8 7.37 8 3.74 8 0 C8.99 0 9.98 0 11 0 C11.05389087 1.95803507 11.09274217 3.91648909 11.125 5.875 C11.14820312 6.96554688 11.17140625 8.05609375 11.1953125 9.1796875 C11 12 11 12 9 14 C5.5 14.25 5.5 14.25 2 14 C0 12 0 12 -0.1953125 9.1796875 C-0.17210938 8.08914062 -0.14890625 6.99859375 -0.125 5.875 C-0.10695313 4.77929688 -0.08890625 3.68359375 -0.0703125 2.5546875 C-0.04710938 1.71164063 -0.02390625 0.86859375 0 0 Z " fill="#F5981D" transform="translate(116,157)"/>
<path d="M0 0 C0.94875 0.04125 1.8975 0.0825 2.875 0.125 C3.535 1.445 4.195 2.765 4.875 4.125 C2.565 3.795 0.255 3.465 -2.125 3.125 C-2.125 3.785 -2.125 4.445 -2.125 5.125 C-1.34125 5.269375 -0.5575 5.41375 0.25 5.5625 C2.875 6.125 2.875 6.125 4.875 7.125 C5 9.5 5 9.5 4.875 12.125 C2.875 14.125 2.875 14.125 -0.25 14.25 C-1.19875 14.20875 -2.1475 14.1675 -3.125 14.125 C-3.785 12.805 -4.445 11.485 -5.125 10.125 C-2.815 10.455 -0.505 10.785 1.875 11.125 C1.875 10.465 1.875 9.805 1.875 9.125 C-0.105 8.465 -2.085 7.805 -4.125 7.125 C-4.75 4.75 -4.75 4.75 -5.125 2.125 C-3.125 0.125 -3.125 0.125 0 0 Z " fill="#F5991D" transform="translate(259.125,156.875)"/>
<path d="M0 0 C7.75 -0.125 7.75 -0.125 10 1 C10.875 2.8125 10.875 2.8125 11 5 C9.3125 7.25 9.3125 7.25 7 9 C5.68 9 4.36 9 3 9 C3 10.65 3 12.3 3 14 C2.01 14 1.02 14 0 14 C0 9.38 0 4.76 0 0 Z M3 3 C3 3.99 3 4.98 3 6 C4.32 6 5.64 6 7 6 C7 5.01 7 4.02 7 3 C5.68 3 4.36 3 3 3 Z " fill="#F5981E" transform="translate(146,157)"/>
<path d="M0 0 C2.97 0 5.94 0 9 0 C8.67 0.99 8.34 1.98 8 3 C6.35 3 4.7 3 3 3 C3 3.99 3 4.98 3 6 C4.65 6 6.3 6 8 6 C8 6.66 8 7.32 8 8 C6.35 8 4.7 8 3 8 C3 8.99 3 9.98 3 11 C4.65 11 6.3 11 8 11 C8.33 11.99 8.66 12.98 9 14 C6.03 14 3.06 14 0 14 C0 9.38 0 4.76 0 0 Z " fill="#F6991E" transform="translate(244,157)"/>
<path d="M0 0 C2.64 0 5.28 0 8 0 C8 0.99 8 1.98 8 3 C6.35 3 4.7 3 3 3 C3 3.99 3 4.98 3 6 C4.32 6 5.64 6 7 6 C7 6.66 7 7.32 7 8 C5.68 8 4.36 8 3 8 C3 8.99 3 9.98 3 11 C4.65 11 6.3 11 8 11 C8 11.99 8 12.98 8 14 C5.36 14 2.72 14 0 14 C0 9.38 0 4.76 0 0 Z " fill="#F5981E" transform="translate(190,157)"/>
<path d="M0 0 C2.64 0 5.28 0 8 0 C8 0.99 8 1.98 8 3 C6.35 3 4.7 3 3 3 C3 3.99 3 4.98 3 6 C4.32 6 5.64 6 7 6 C7 6.66 7 7.32 7 8 C5.68 8 4.36 8 3 8 C3 8.99 3 9.98 3 11 C4.65 11 6.3 11 8 11 C8 11.99 8 12.98 8 14 C5.36 14 2.72 14 0 14 C0 9.38 0 4.76 0 0 Z " fill="#F5991E" transform="translate(158,157)"/>
<path d="M0 0 C1.32 0 2.64 0 4 0 C4.66 1.32 5.32 2.64 6 4 C6.6496875 3.01 6.6496875 3.01 7.3125 2 C7.869375 1.34 8.42625 0.68 9 0 C9.99 0 10.98 0 12 0 C10.125 5.875 10.125 5.875 9 7 C8.63239269 9.32817964 8.29758419 11.6618385 8 14 C7.01 14 6.02 14 5 14 C4.80664062 13.40832031 4.61328125 12.81664062 4.4140625 12.20703125 C3.05585281 8.0853355 1.67949415 4.0049476 0 0 Z " fill="#F5981D" transform="translate(88,157)"/>
<path d="M0 0 C2.97 0 5.94 0 9 0 C9 0.99 9 1.98 9 3 C7.02 3 5.04 3 3 3 C3 3.99 3 4.98 3 6 C4.32 6 5.64 6 7 6 C7 6.66 7 7.32 7 8 C5.68 8 4.36 8 3 8 C3 9.98 3 11.96 3 14 C2.01 14 1.02 14 0 14 C0 9.38 0 4.76 0 0 Z " fill="#F5981E" transform="translate(42,157)"/>
<path d="M0 0 C2.97 0 5.94 0 9 0 C8.67 0.99 8.34 1.98 8 3 C6.35 3 4.7 3 3 3 C3 3.99 3 4.98 3 6 C4.32 6 5.64 6 7 6 C7 6.66 7 7.32 7 8 C5.68 8 4.36 8 3 8 C3 9.98 3 11.96 3 14 C2.01 14 1.02 14 0 14 C0 9.38 0 4.76 0 0 Z " fill="#F5981D" transform="translate(180,157)"/>
<path d="M0 0 C3.3 0 6.6 0 10 0 C10 0.99 10 1.98 10 3 C9.01 3 8.02 3 7 3 C7 6.63 7 10.26 7 14 C6.01 14 5.02 14 4 14 C4 10.37 4 6.74 4 3 C2.68 3 1.36 3 0 3 C0 2.01 0 1.02 0 0 Z " fill="#F5981E" transform="translate(265,157)"/>
<path d="M0 0 C3.3 0 6.6 0 10 0 C10 0.99 10 1.98 10 3 C9.01 3 8.02 3 7 3 C7 6.63 7 10.26 7 14 C6.01 14 5.02 14 4 14 C4 10.37 4 6.74 4 3 C2.68 3 1.36 3 0 3 C0 2.01 0 1.02 0 0 Z " fill="#F6991E" transform="translate(214,157)"/>
<path d="M0 0 C0.99 0 1.98 0 3 0 C3 4.62 3 9.24 3 14 C2.01 14 1.02 14 0 14 C0 9.38 0 4.76 0 0 Z " fill="#F5981D" transform="translate(52,157)"/>
<path d="M0 0 C2.64 0 5.28 0 8 0 C8 1.32 8 2.64 8 4 C5.36 4 2.72 4 0 4 C0 2.68 0 1.36 0 0 Z " fill="#325787" transform="translate(16,111)"/>
<path d="M0 0 C2.64 0 5.28 0 8 0 C8 1.32 8 2.64 8 4 C5.36 4 2.72 4 0 4 C0 2.68 0 1.36 0 0 Z " fill="#325787" transform="translate(16,103)"/>
<path d="M0 0 C2.31 0 4.62 0 7 0 C7.33 1.32 7.66 2.64 8 4 C5.36 4 2.72 4 0 4 C0 2.68 0 1.36 0 0 Z " fill="#2D5385" transform="translate(16,86)"/>
<path d="M0 0 C2.31 0 4.62 0 7 0 C7 1.32 7 2.64 7 4 C4.69 4 2.38 4 0 4 C0 2.68 0 1.36 0 0 Z " fill="#20497D" transform="translate(4,111)"/>
<path d="M0 0 C2.31 0 4.62 0 7 0 C7 1.32 7 2.64 7 4 C4.69 4 2.38 4 0 4 C0 2.68 0 1.36 0 0 Z " fill="#20497D" transform="translate(4,103)"/>
<path d="M0 0 C2.64 0 5.28 0 8 0 C8 0.99 8 1.98 8 3 C5.36 3 2.72 3 0 3 C0 2.01 0 1.02 0 0 Z " fill="#143F76" transform="translate(16,95)"/>
<path d="M0 0 C2.31 0 4.62 0 7 0 C7 0.99 7 1.98 7 3 C4.69 3 2.38 3 0 3 C0 2.01 0 1.02 0 0 Z " fill="#012F6B" transform="translate(4,95)"/>
<path d="M0 0 C2.31 0 4.62 0 7 0 C7 0.99 7 1.98 7 3 C4.69 3 2.38 3 0 3 C0 2.01 0 1.02 0 0 Z " fill="#012F6B" transform="translate(4,87)"/>
</svg>
